<svg xmlns="http://www.w3.org/2000/svg" viewBox="0 0 100 100"><rect x="15" y="15" width="22" height="70" rx="3" fill="#CC3333"/><rect x="63" y="20" width="22" height="60" rx="3" fill="#CC3333"/><path d="M37 18l6 4-6 8 6 8-6 8 6 8-6 8 6 8-6 8 6 8-6 4h0" fill="none" stroke="#F5F5DC" stroke-width="0.8"/><path d="M43 18l6 4-6 8 6 8-6 8 6 8-6 8 6 8-6 8 6 8-6 4h0" fill="none" stroke="#F5F5DC" stroke-width="0.8"/><path d="M49 18l6 4-6 8 6 8-6 8 6 8-6 8 6 8-6 8 6 8-6 4h0" fill="none" stroke="#F5F5DC" stroke-width="0.8"/><path d="M55 20l4 3-4 7 4 7-4 7 4 7-4 7 4 7-4 7 4 7-4 3h0" fill="none" stroke="#F5F5DC" stroke-width="0.8"/><rect x="18" y="25" width="4" height="6" rx="1" fill="#F5F5DC"/><rect x="18" y="35" width="4" height="6" rx="1" fill="#F5F5DC"/><rect x="18" y="45" width="4" height="6" rx="1" fill="#F5F5DC"/><rect x="18" y="55" width="4" height="6" rx="1" fill="#F5F5DC"/><rect x="18" y="65" width="4" height="6" rx="1" fill="#F5F5DC"/><circle cx="74" cy="35" r="3" fill="#222"/><circle cx="74" cy="45" r="3" fill="#222"/><circle cx="74" cy="55" r="3" fill="#222"/><circle cx="74" cy="65" r="3" fill="#222"/></svg>