<svg xmlns="http://www.w3.org/2000/svg" viewBox="0 0 100 100"><path d="M20 25c0-5 15-15 35-15s25 8 25 15v5l10 35v10c0 3-2 5-5 5H15c-3 0-5-2-5-5V65l10-35z" fill="#1a1a1a"/><path d="M25 75h50v10H25z" fill="#F5F5DC"/><rect x="28" y="75" width="5" height="10" fill="#F5F5DC" stroke="#999" stroke-width="0.5"/><rect x="34" y="75" width="5" height="10" fill="#F5F5DC" stroke="#999" stroke-width="0.5"/><rect x="40" y="75" width="5" height="10" fill="#F5F5DC" stroke="#999" stroke-width="0.5"/><rect x="46" y="75" width="5" height="10" fill="#F5F5DC" stroke="#999" stroke-width="0.5"/><rect x="52" y="75" width="5" height="10" fill="#F5F5DC" stroke="#999" stroke-width="0.5"/><rect x="58" y="75" width="5" height="10" fill="#F5F5DC" stroke="#999" stroke-width="0.5"/><rect x="64" y="75" width="5" height="10" fill="#F5F5DC" stroke="#999" stroke-width="0.5"/><rect x="31" y="75" width="3" height="6" fill="#1a1a1a"/><rect x="37" y="75" width="3" height="6" fill="#1a1a1a"/><rect x="49" y="75" width="3" height="6" fill="#1a1a1a"/><rect x="55" y="75" width="3" height="6" fill="#1a1a1a"/><rect x="61" y="75" width="3" height="6" fill="#1a1a1a"/></svg>