<svg xmlns="http://www.w3.org/2000/svg" viewBox="0 0 100 100"><rect x="10" y="46" width="55" height="8" rx="4" fill="#DAA520"/><path d="M65 42c8-2 16-2 22 0v16c-6 2-14 2-22 0z" fill="#DAA520"/><path d="M87 40v20c4 2 8 6 8 10H87c0-4-4-8-8-10V40c4 2 8 6 8 10" fill="#B8860B"/><ellipse cx="92" cy="50" rx="4" ry="12" fill="#DAA520"/><rect x="30" y="38" width="4" height="14" rx="2" fill="#B8860B"/><rect x="40" y="38" width="4" height="14" rx="2" fill="#B8860B"/><rect x="50" y="38" width="4" height="14" rx="2" fill="#B8860B"/><circle cx="32" cy="37" r="2.5" fill="#CD853F"/><circle cx="42" cy="37" r="2.5" fill="#CD853F"/><circle cx="52" cy="37" r="2.5" fill="#CD853F"/><circle cx="12" cy="50" r="3" fill="#B8860B"/></svg>